<svg width="24" height="24" viewBox="0 0 24 24" fill="none" xmlns="http://www.w3.org/2000/svg">
<g clip-path="url(#clip0_57_11322)">
<path fill-rule="evenodd" clip-rule="evenodd" d="M5.99991 0C5.82873 3.98399e-05 5.66149 0.0513321 5.51972 0.147269C5.37795 0.243206 5.26816 0.379393 5.20448 0.538286L3.76448 4.13829H20.2353L18.7953 0.538286C18.7317 0.379393 18.6219 0.243206 18.4801 0.147269C18.3383 0.0513321 18.1711 3.98399e-05 17.9999 0L5.99991 0ZM5.15305 23.2731L3.86048 14.8766H20.1393L18.8468 23.2731C18.8157 23.4755 18.7132 23.66 18.5578 23.7933C18.4025 23.9266 18.2046 23.9999 17.9999 24H5.99991C5.79522 23.9999 5.59731 23.9266 5.44198 23.7933C5.28666 23.66 5.18417 23.4755 5.15305 23.2731ZM3.62734 6.27943H20.3742C21.4028 6.27943 22.2342 7.00286 22.2342 7.89429V11.1206C22.2342 12.012 21.4011 12.732 20.3742 12.732H3.62563C2.59705 12.732 1.76562 12.012 1.76562 11.1206V7.89429C1.76562 7.00286 2.60048 6.27943 3.62734 6.27943Z" fill="#1D4E1A"/>
</g>
<defs>
<clipPath id="clip0_57_11322">
<rect width="24" height="24" fill="white"/>
</clipPath>
</defs>
</svg>
